# xmcd
#
# Track frame offsets: 
#        150
#        18487
#        32600
#        49915
#        68037
#        83440
#        97355
#        115960
#        133407
#        152565
#        169085
#
# Disc length: 2459 seconds
#
# Revision: 23
# Processed by: cddbd v1.5.2PL0 Copyright (c) Steve Scherf et al.
# Submitted via: ExactAudioCopyFreeDBPlugin 1.0
#
DISCID=9009990b
DTITLE=Kenny Chesney - Everywhere We Go
DYEAR=1999
DGENRE=Country
TTITLE0=What I Need To Do
TTITLE1=How Forever Feels
TTITLE2=You Had Me From Hello
TTITLE3=Kiss Me Kiss Me Kiss Me
TTITLE4=Life Is Good
TTITLE5=Everywhere We Go
TTITLE6=She Thinks My Tractor's Sexy
TTITLE7=California
TTITLE8=Baptism (With Randy Travis)
TTITLE9=A Woman Knows
TTITLE10=I Might Get Over You
EXTD=
EXTT0=
EXTT1=
EXTT2=
EXTT3=
EXTT4=
EXTT5=
EXTT6=
EXTT7=
EXTT8=
EXTT9=
EXTT10=
PLAYORDER=
